<svg xmlns="http://www.w3.org/2000/svg" viewBox="0 0 24 24" fill="none">
<path opacity="0.32" fill-rule="evenodd" clip-rule="evenodd" d="M11.1 2.3 4.4 4.9c-.5.2-.9.7-.9 1.3v5.1c0 4.7 3 9 7.4 10.6.7.3 1.5.3 2.2 0 4.4-1.6 7.4-5.9 7.4-10.6V6.2c0-.6-.4-1.1-.9-1.3l-6.7-2.6c-.6-.2-1.2-.2-1.8 0Z" fill="currentColor"/>
<path fill-rule="evenodd" clip-rule="evenodd" d="M16.2 8.5c.3.3.3.9 0 1.2l-4.9 5a.9.9 0 0 1-1.3 0l-2.3-2.4a.85.85 0 0 1 0-1.2c.3-.3.9-.3 1.2 0l1.7 1.7 4.4-4.3c.3-.3.9-.3 1.2 0Z" fill="currentColor"/>
</svg>
